<svg width="643" height="201" viewBox="0 0 643 201" fill="none" xmlns="http://www.w3.org/2000/svg">
<path d="M277 194.5L168.5 120L142 76.5L151 31.5002L201.5 6.50016L239.5 13.0002L277 35.0002L311.5 13.0002L374 6.50014L408 22.5002L421 71L408 102L355.5 153.5L277 194.5Z" fill="#FBD4E6"/>
<path d="M268.5 140.5L225 126L208.5 99L210 69.5L215 45L225 51.5L235.5 61.5L268.5 59.5L300 58L320.5 48.5H331.5L335 72L340 105.5L297 133L268.5 140.5Z" fill="white"/>
<path d="M211 93.6087C211.77 83.3526 214.396 79.1107 216 78.2471L212.5 72.2471C210.167 68.2471 206.9 57.6471 212.5 47.2471C215 43.2471 223.1 40.4471 235.5 61.2471C251.667 59.2471 288.5 55.8471 306.5 58.2471C312 52.7471 324.9 42.8472 332.5 47.2471C334.333 48.9138 337.3 55.7471 334.5 69.7471C339 77.7471 345.9 97.0471 337.5 110.247C329.1 123.447 293.667 136.08 277 140.747C255.5 137.747 212.2 126.747 211 106.747C210.98 106.41 210.961 106.077 210.944 105.747M211 93.6087L190 95.7471M211 93.6087C210.841 95.7245 210.761 98.0963 210.786 100.747M211 93.6087L210.786 100.747M210.786 100.747C210.8 102.315 210.851 103.98 210.944 105.747M210.944 105.747L194.5 115.247" stroke="black" stroke-width="10" stroke-linecap="round"/>
<path d="M341.5 89.2471C348.833 87.0804 365.2 82.8471 372 83.2471" stroke="black" stroke-width="10" stroke-linecap="round"/>
<path d="M343.5 96.7471C350.833 97.0805 367.6 98.1471 376 99.7471" stroke="black" stroke-width="10" stroke-linecap="round"/>
<path d="M232 89.7471C234 90.2471 238 92.2471 241.5 96.2471" stroke="black" stroke-width="10" stroke-linecap="round"/>
<path d="M312.5 85.7471C309.333 86.2471 302.6 89.0471 301 96.2471" stroke="black" stroke-width="10" stroke-linecap="round"/>
<path d="M264 98.2471L270 104.747L276 97.2471" stroke="black" stroke-width="10" stroke-linecap="round"/>
<path d="M5 61.2471L22.75 58.9971M40.5 56.7471L22.75 58.9971M22.75 58.9971L37.1615 127.747L38 131.747M38 131.747L10 138.247M38 131.747L64 130.247M276 36.2471C267.667 24.9138 240.8 3.14713 200 6.74713C179 9.91379 138.4 29.5471 144 82.7471C146.333 96.9138 166.5 132.647 228.5 162.247L281.5 194.747L353 154.747C374.333 139.247 417.5 103.147 419.5 82.7471C424.5 62.5805 424 19.1471 382 6.74713C356.667 2.74713 300 3.04713 276 36.2471Z" stroke="black" stroke-width="10" stroke-linecap="round"/>
<path d="M486.5 64.7471C485.667 79.0805 490.2 109.247 515 115.247C526.333 115.914 548.7 107.947 547.5 70.7471" stroke="black" stroke-width="10" stroke-linecap="round"/>
<path d="M637.5 36.7471L620.5 97.2471" stroke="black" stroke-width="10" stroke-linecap="round"/>
<path d="M615 122.247L614.5 121.747" stroke="black" stroke-width="10" stroke-linecap="round"/>
</svg>
