<svg width="632" height="623" viewBox="0 0 632 623" fill="none" xmlns="http://www.w3.org/2000/svg">
<path d="M174.408 549.258C181.232 552.45 194.478 555.335 201.408 556.558C213.008 555.758 225.242 548.558 229.908 545.058C246.308 526.658 230.408 517.725 220.408 515.558L186.908 509.558C194.508 508.758 221.408 513.225 233.908 515.558C244.708 519.158 264.742 518.725 273.408 518.058C296.908 511.558 290.408 489.058 275.408 485.558L183.908 468.058C173.508 466.058 167.575 462.558 165.908 461.058C171.108 464.658 183.408 464.891 188.908 464.558C208.508 458.558 218.075 445.725 220.408 440.058C225.608 412.858 204.575 411.058 193.408 413.558C180.208 426.758 162.575 434.058 155.408 436.058H139.908C133.5 434 134.075 432.391 132.408 432.058H110.408C104.408 430.458 82.9084 450.725 72.9084 461.058C65.7084 467.458 57.5751 468.391 54.4085 468.058H20.9083C5.30835 483.258 7.40835 533.391 10.4083 556.558C18.9083 566.058 46.7418 571.058 60.4085 572.558C73.6085 569.758 86.2418 575.725 90.9084 579.058L141.908 608.558C179.408 633.058 180.908 600.558 164.908 595.058C179.408 600.042 187.742 598.225 192.408 596.558C215.408 583.558 213.408 559.558 201.908 556.558M174.408 549.258C172.863 548.535 171.647 547.797 170.908 547.058L174.408 549.258Z" stroke="black" stroke-width="10" stroke-linecap="round"/>
<path d="M606.375 523.058C588.096 368.769 550.079 269.498 532.908 238.558C561.708 224.958 603.908 171.558 621.408 146.558C632.208 118.158 623.242 111.725 617.408 112.058C610.208 109.258 561.408 125.558 537.908 134.058C527.108 138.058 506.075 137.725 496.908 137.058C479.708 136.658 462.075 129.558 455.408 126.058C344.608 73.258 260.908 78.3913 232.908 87.558C206.508 78.758 188.575 63.558 182.908 57.058L142.908 15.5579C126.908 2.75795 118.242 4.22461 115.908 6.55795C100.708 36.9579 122.242 119.891 134.908 157.558C87.1716 244.203 -4.02206 423.535 5.72273 460.558M606.375 523.058C606.903 527.512 607.414 532.012 607.908 536.558L606.375 523.058ZM419.908 599.058L422.408 606.058C421.908 611.558 426.242 613.225 429.908 614.058H451.408C472.908 608.058 508.908 582.058 509.908 579.558C510.708 577.558 517.575 577.058 520.908 577.058H539.908C553.108 580.258 572.408 572.058 580.408 567.558C588.008 528.758 574.575 485.725 566.908 469.058H536.408C530.008 467.058 525.075 463.891 523.408 462.558C495.808 440.158 488.575 435.891 488.408 436.558C484.908 435.558 454.242 434.725 438.408 436.558C414.408 431.358 402.408 420.725 399.408 416.058C376.72 410.674 371.623 429.505 371.855 440.742M419.908 599.058H432.408M419.908 599.058H405.908C395.742 594.558 376.908 581.958 382.908 567.558L386.908 562.058M386.908 562.058C394.671 561.365 410.274 558.919 419.908 554.203M386.908 562.058C377.075 557.725 358.183 545.258 362.908 530.558C367.408 516.558 364.408 528.058 362.908 529.058C366.908 525.058 378.808 514.658 396.408 515.058L307.408 519.058C286.908 515.058 279.408 498.058 302.408 489.558L396.408 474.058C398.022 473.897 401.331 473.306 406.085 472.058M419.908 554.203C421.857 553.249 423.562 552.202 424.908 551.058C432.908 544.258 424.908 550.322 419.908 554.203ZM406.085 472.058L425.908 465.558C420.198 467.754 415.162 469.437 410.908 470.704M406.085 472.058C407.557 471.672 409.167 471.223 410.908 470.704M410.908 470.704C397.408 465.655 372.545 452.558 371.908 442.058M371.908 442.058C371.883 441.633 371.865 441.194 371.855 440.742M371.908 442.058L371.855 440.742M5.72273 460.558C5.91257 461.279 6.14073 461.946 6.40826 462.558L5.72273 460.558ZM243.408 274.558C244.075 280.725 248.108 296.158 258.908 308.558C261.481 311.282 267.378 317.962 272.034 324.558M272.034 324.558C272.507 325.227 272.966 325.895 273.408 326.558L272.034 324.558ZM290.908 308.558V340.558C291.455 342.334 293.121 345.499 295.908 346.362M295.908 346.362C296.521 346.552 297.187 346.63 297.908 346.558L295.908 346.362ZM304.908 317.058V328.558V334.308V337.183V339.558V340.058V340.558M180.408 219.558C188.075 217.725 206.208 221.358 217.408 250.558C223.075 267.558 235.508 303.458 239.908 311.058C222.408 309.058 186.508 300.658 182.908 283.058C181.242 275.725 178.408 252.758 180.408 219.558Z" stroke="black" stroke-width="10" stroke-linecap="round"/>
<path d="M470.908 259.558H458.908M458.908 259.558H423.408C419.808 259.558 418.242 260.891 417.908 261.558C390.708 293.558 369.575 313.225 362.408 319.058C369.208 321.458 387.575 323.058 395.908 323.558H426.408C451.208 307.958 458.408 274.391 458.908 259.558ZM207.408 341.558H223.908L227.408 348.558M227.408 348.558L235.908 341.558M227.408 348.558V369.558C227.908 378.225 234.608 395.458 257.408 395.058H286.408C289.408 393.891 296.408 389.558 300.408 381.558M300.408 381.558V371.058M300.408 381.558C304.908 387.725 319.108 400.858 339.908 404.058C348.408 404.391 369.008 398.658 383.408 373.058V368.058M300.408 371.058C297.796 370.29 292.69 367.878 291.596 364.058M300.408 371.058L303.908 366.058H310.908M291.596 364.058C291.503 363.735 291.439 363.401 291.408 363.058L291.596 364.058ZM383.408 359.558V368.058M383.408 368.058C385.242 365.558 391.108 359.958 399.908 357.558H409.408" stroke="black" stroke-width="10" stroke-linecap="round"/>
<path d="M328.408 326.558C332.408 323.558 341.008 315.258 343.408 306.058C346.408 294.558 354.408 287.558 361.408 289.558" stroke="black" stroke-width="10" stroke-linecap="round"/>
<ellipse cx="421.408" cy="293.558" rx="25.5" ry="33" transform="rotate(6.40406 421.408 293.558)" fill="black"/>
<ellipse cx="201.138" cy="269.212" rx="23.5" ry="30.5" transform="rotate(-11.7751 201.138 269.212)" fill="black"/>
</svg>
